<svg width="32" height="23" viewBox="0 0 32 23" fill="none" xmlns="http://www.w3.org/2000/svg">
<path d="M10.55 22.3C10.35 22.3 10.1667 22.2667 10 22.2C9.83333 22.1333 9.66667 22.0167 9.5 21.85L0.45 12.8C0.15 12.5 0 12.1333 0 11.7C0 11.2667 0.15 10.9 0.45 10.6C0.75 10.3 1.1 10.15 1.5 10.15C1.9 10.15 2.25 10.3 2.55 10.6L10.55 18.6L28.7 0.45C29 0.15 29.3583 0 29.775 0C30.1917 0 30.55 0.15 30.85 0.45C31.15 0.75 31.3 1.10833 31.3 1.525C31.3 1.94167 31.15 2.3 30.85 2.6L11.6 21.85C11.4333 22.0167 11.2667 22.1333 11.1 22.2C10.9333 22.2667 10.75 22.3 10.55 22.3Z" fill="white"/>
</svg>
